-----------------------------------------------------------------------------------
          The Victoria's Secret Fashion Show 2012 1080i HDTV MPEG2 AC3 5.1
-----------------------------------------------------------------------------------

Format                           : MPEG-TS
File size                        : 5.00 GiB
Duration                         : 43mn 28s
Overall bit rate mode            : Variable
Overall bit rate                 : 16.5 Mbps

-----------------------------------------------------------------------------------
Video
-----------------------------------------------------------------------------------
Format                           : MPEG Video
Duration                         : 43mn 28s
Bit rate mode                    : Variable
Bit rate                         : 15.3 Mbps
Maximum bit rate                 : 38.8 Mbps
Width                            : 1 920 pixels
Height                           : 1 080 pixels
Display aspect ratio             : 16:9
Frame rate                       : 29.970 fps
Standard                         : Component
Color space                      : YUV
Chroma subsampling               : 4:2:0
Bit depth                        : 8 bits
Scan type                        : Interlaced
Scan order                       : Top Field First
Compression mode                 : Lossy
Bits/(Pixel*Frame)               : 0.245
Stream size                      : 4.63 GiB (93%)
-----------------------------------------------------------------------------------
Audio
-----------------------------------------------------------------------------------
Format                           : AC-3
Duration                         : 43mn 28s
Bit rate mode                    : Constant
Bit rate                         : 384 Kbps
Channel(s)                       : 6 channels
Channel positions                : Front: L C R, Side: L R, LFE
Sampling rate                    : 48.0 KHz
Bit depth                        : 16 bits
Compression mode                 : Lossy
Stream size                      : 119 MiB (2%)
Language                         : English
-----------------------------------------------------------------------------------

Enjoy !